<?xml version="1.0" standalone="no"?>
<svg xmlns="http://www.w3.org/2000/svg" viewBox="0 0 113.884 29" width="113.884" height="29"><g fill="#ff3366" color="#ff3366" transform="translate(0, 0) scale(0.5686275)"><svg width="44.0" height="51.0" x="0.0" y="0.0" viewBox="0 0 44 51"><path fill="currentColor" fill-rule="evenodd" d="M21.986 0L44 12.704v25.393L22.029 50.801.014 38.111 0 12.718 21.986 0zM22 7.428L6.43 16.425V34.42l15.599 8.996 15.555-9.01-.014-17.994L22 7.428zm-.001 5.403l10.907 6.302v12.561l-10.907 6.302-10.893-6.288-.015-12.575L22 12.83z"></path></svg></g><line x1="37.02" y1="1" x2="37.02" y2="28" stroke="#222222" stroke-linecap="round"></line><path fill="#222222" fill-rule="nonzero" d="M5.74 15.82L6.34 17.04Q5.86 17.47 5.16 17.70Q4.46 17.93 3.70 17.93L3.70 17.93Q1.92 17.93 0.96 16.97Q0 16.01 0 14.26L0 14.26L0 2.42L1.70 2.42L1.70 5.18L5.52 5.18L5.52 6.62L1.70 6.62L1.70 14.16Q1.70 15.29 2.26 15.88Q2.81 16.46 3.86 16.46L3.86 16.46Q5.02 16.46 5.74 15.82L5.74 15.82ZM9.84 17.93Q9.31 17.93 8.94 17.54Q8.57 17.16 8.57 16.61L8.57 16.61Q8.57 16.06 8.94 15.68Q9.31 15.31 9.84 15.31L9.84 15.31Q10.37 15.31 10.75 15.68Q11.14 16.06 11.14 16.61L11.14 16.61Q11.14 17.16 10.75 17.54Q10.37 17.93 9.84 17.93L9.84 17.93ZM19.99 17.93Q18.12 17.93 16.64 17.11Q15.17 16.30 14.33 14.82Q13.49 13.34 13.49 11.50L13.49 11.50Q13.49 9.65 14.33 8.18Q15.17 6.72 16.64 5.90Q18.12 5.09 19.99 5.09L19.99 5.09Q21.62 5.09 22.91 5.72Q24.19 6.36 24.94 7.58L24.94 7.58L23.66 8.45Q23.04 7.51 22.08 7.04Q21.12 6.58 19.99 6.58L19.99 6.58Q18.62 6.58 17.53 7.19Q16.44 7.80 15.83 8.93Q15.22 10.06 15.22 11.50L15.22 11.50Q15.22 12.96 15.83 14.08Q16.44 15.19 17.53 15.80Q18.62 16.42 19.99 16.42L19.99 16.42Q21.12 16.42 22.08 15.96Q23.04 15.50 23.66 14.57L23.66 14.57L24.94 15.43Q24.19 16.66 22.90 17.29Q21.60 17.93 19.99 17.93L19.99 17.93ZM34.51 5.09Q36.89 5.09 38.29 6.47Q39.70 7.85 39.70 10.49L39.70 10.49L39.70 17.81L37.99 17.81L37.99 10.66Q37.99 8.69 37.01 7.66Q36.02 6.62 34.20 6.62L34.20 6.62Q32.16 6.62 30.97 7.84Q29.78 9.05 29.78 11.18L29.78 11.18L29.78 17.81L28.08 17.81L28.08 0L29.78 0L29.78 7.39Q30.48 6.29 31.70 5.69Q32.93 5.09 34.51 5.09L34.51 5.09ZM54.19 5.18L55.90 5.18L55.90 17.81L54.26 17.81L54.26 15.31Q53.50 16.58 52.24 17.26Q50.98 17.93 49.39 17.93L49.39 17.93Q47.62 17.93 46.18 17.11Q44.74 16.30 43.92 14.83Q43.10 13.37 43.10 11.50L43.10 11.50Q43.10 9.62 43.92 8.16Q44.74 6.70 46.18 5.89Q47.62 5.09 49.39 5.09L49.39 5.09Q50.93 5.09 52.16 5.72Q53.40 6.36 54.19 7.58L54.19 7.58L54.19 5.18ZM49.54 16.42Q50.86 16.42 51.92 15.80Q52.99 15.19 53.60 14.06Q54.22 12.94 54.22 11.50L54.22 11.50Q54.22 10.06 53.60 8.93Q52.99 7.80 51.92 7.19Q50.86 6.58 49.54 6.58L49.54 6.58Q48.19 6.58 47.12 7.19Q46.06 7.80 45.44 8.93Q44.83 10.06 44.83 11.50L44.83 11.50Q44.83 12.94 45.44 14.06Q46.06 15.19 47.12 15.80Q48.19 16.42 49.54 16.42L49.54 16.42ZM66.26 15.82L66.86 17.04Q66.38 17.47 65.69 17.70Q64.99 17.93 64.22 17.93L64.22 17.93Q62.45 17.93 61.49 16.97Q60.53 16.01 60.53 14.26L60.53 14.26L60.53 2.42L62.23 2.42L62.23 5.18L66.05 5.18L66.05 6.62L62.23 6.62L62.23 14.16Q62.23 15.29 62.78 15.88Q63.34 16.46 64.39 16.46L64.39 16.46Q65.54 16.46 66.26 15.82L66.26 15.82Z" transform="translate(47.02, 5.536)"></path></svg>